<?xml version="1.0" encoding="UTF-8"?>
<svg id="Layer_1" xmlns="http://www.w3.org/2000/svg" version="1.1" viewBox="0 0 231.9 223.2">
  <!-- Generator: Adobe Illustrator 29.3.1, SVG Export Plug-In . SVG Version: 2.1.0 Build 151)  -->
  <defs>
    <style>
      .st0 {
        fill: #fff;
      }
    </style>
  </defs>
  <path class="st0" d="M111.6,0c-14.7,0-29.2,2.9-42.7,8.5-13.5,5.6-25.8,13.8-36.2,24.2-10.4,10.4-18.6,22.7-24.2,36.2C2.9,82.4,0,96.9,0,111.6s2.9,29.2,8.5,42.7c5.6,13.5,13.8,25.8,24.2,36.2,10.4,10.4,22.7,18.6,36.2,24.2,13.5,5.6,28,8.5,42.7,8.5v-60.5c-6.7,0-13.3-1.3-19.5-3.9-6.2-2.6-11.8-6.3-16.6-11.1-4.7-4.7-8.5-10.4-11.1-16.6-2.6-6.2-3.9-12.8-3.9-19.5s1.3-13.3,3.9-19.5c2.6-6.2,6.3-11.8,11.1-16.6s10.4-8.5,16.6-11.1,12.8-3.9,19.5-3.9c0,0,0-60.5,0-60.5Z"/>
  <path class="st0" d="M111.4,163.1c13.7,0,26.8-5.4,36.4-15.1s15.1-22.8,15.1-36.4-5.4-26.8-15.1-36.4c-9.7-9.7-22.8-15.1-36.4-15.1v16.6c9.3,0,18.2,3.7,24.7,10.2,6.6,6.6,10.2,15.4,10.2,24.7s-3.7,18.2-10.2,24.7-15.4,10.2-24.7,10.2v16.6h0Z"/>
  <circle class="st0" cx="219.9" cy="111.5" r="12"/>
  <circle class="st0" cx="195.4" cy="111.6" r="6.3"/>
  <circle class="st0" cx="179.6" cy="111.7" r="3.5"/>
  <circle class="st0" cx="142.8" cy="208.1" r="12"/>
  <circle class="st0" cx="136.5" cy="186.4" r="6.3"/>
  <circle class="st0" cx="132.6" cy="172.9" r="3.5"/>
  <circle class="st0" cx="196.5" cy="177.1" r="12"/>
  <circle class="st0" cx="178" cy="161.2" r="6.3"/>
  <circle class="st0" cx="166" cy="150.8" r="3.5"/>
  <circle class="st0" cx="142.7" cy="12.9" r="12"/>
  <circle class="st0" cx="136.5" cy="34.6" r="6.3"/>
  <circle class="st0" cx="132.6" cy="48.1" r="3.5"/>
  <circle class="st0" cx="196.5" cy="43.8" r="12"/>
  <circle class="st0" cx="178" cy="59.8" r="6.3"/>
  <circle class="st0" cx="166" cy="70.2" r="3.5"/>
</svg>