<svg width="1439" height="226" viewBox="0 0 1439 226" fill="none" xmlns="http://www.w3.org/2000/svg">
<path d="M337.353 166.896H302.155L345.285 54.6892H384.615L427.664 166.896H392.465L385.194 148.139H344.624L337.353 166.896ZM364.95 85.7566L352.061 123.269H377.757L364.95 85.7566ZM432.049 166.896V54.6892H481.46C513.188 54.6892 538.637 79.6423 538.637 110.71C538.637 141.695 513.188 166.896 481.46 166.896H432.049ZM479.725 81.2122H465.017V140.455H479.477C494.763 140.455 505.256 126.491 505.256 110.71C505.256 95.0107 494.928 81.2122 479.725 81.2122ZM582.353 54.6892V166.896H549.385V54.6892H582.353ZM634.669 166.896V54.6892H712.75V70.4708H652.02V101.786H699.695V117.568H652.02V166.896H634.669ZM752.252 168.548C728.125 168.548 710.113 150.453 710.113 127.235C710.113 104.017 728.125 85.9219 752.252 85.9219C776.379 85.9219 794.392 104.017 794.392 127.235C794.392 150.453 776.379 168.548 752.252 168.548ZM726.473 127.235C726.473 141.86 737.297 153.18 752.252 153.18C767.208 153.18 778.032 141.86 778.032 127.235C778.032 112.61 767.208 101.29 752.252 101.29C737.297 101.29 726.473 112.61 726.473 127.235ZM805.801 87.5744H822.161V132.275C822.161 145.413 829.349 153.014 841.495 153.014C853.972 153.014 863.804 145.413 863.804 132.275V87.5744H880.164V166.896H863.722V156.898C861.078 160.946 853.559 168.548 838.934 168.548C817.286 168.548 805.801 154.997 805.801 135.745V87.5744ZM914.956 166.896H898.596V87.5744H915.039V97.5722C917.683 93.5235 925.202 85.9219 939.414 85.9219C961.227 85.9219 972.712 99.4726 972.712 118.724V166.896H956.352V122.195C956.352 109.057 949.164 101.456 936.852 101.456C924.789 101.456 914.956 109.057 914.956 122.195V166.896ZM984.286 126.822C984.286 102.447 1001.56 85.9219 1024.11 85.9219C1037.58 85.9219 1046.5 90.8794 1052.37 98.3984V50.5579H1068.73V166.896H1052.37V156.071C1046.5 163.59 1037.58 168.548 1024.11 168.548C1001.56 168.548 984.286 151.197 984.286 126.822ZM1026.1 100.629C1010.81 100.629 1000.65 112.197 1000.65 126.822C1000.65 141.447 1010.81 153.841 1026.1 153.841C1041.38 153.841 1052.29 141.447 1052.29 126.822C1052.29 112.197 1041.3 100.629 1026.1 100.629ZM1081.87 144.339C1081.87 129.466 1096.09 119.22 1116.91 119.22C1126.41 119.22 1133.27 121.203 1136.9 122.938V118.642C1136.9 108.727 1128.89 101.29 1116.58 101.29C1106.74 101.29 1098.56 106.909 1093.86 112.28L1083.53 102.034C1089.64 94.2671 1102.37 85.9219 1116.83 85.9219C1139.13 85.9219 1153.26 97.9853 1153.26 117.237V166.896H1137.23V156.65C1132.36 164.086 1123.19 168.548 1112.53 168.548C1095.34 168.548 1081.87 159.872 1081.87 144.339ZM1098.4 143.76C1098.4 150.949 1105.59 155.163 1114.92 155.163C1127.81 155.163 1136.9 146.322 1136.9 135.498C1133.52 133.762 1125.91 131.697 1117.32 131.697C1106.99 131.697 1098.4 135.167 1098.4 143.76ZM1174.42 101.456H1160.29V87.5744H1174.67V62.1255H1190.62V87.5744H1215.82V101.456H1190.78V141.116C1190.78 149.544 1195.66 153.758 1203.75 153.758C1207.56 153.758 1212.76 152.684 1216.64 151.031L1218.79 165.078C1214.83 167.143 1207.8 168.548 1201.44 168.548C1184.83 168.548 1174.42 159.211 1174.42 143.099V101.456ZM1225.57 60.9688C1225.57 55.0197 1229.71 50.8884 1235.65 50.8884C1241.6 50.8884 1245.82 55.0197 1245.82 60.9688C1245.82 66.9178 1241.6 71.0492 1235.65 71.0492C1229.71 71.0492 1225.57 66.9178 1225.57 60.9688ZM1243.83 166.896H1227.48V87.5744H1243.83V166.896ZM1298.46 168.548C1274.33 168.548 1256.32 150.453 1256.32 127.235C1256.32 104.017 1274.33 85.9219 1298.46 85.9219C1322.58 85.9219 1340.6 104.017 1340.6 127.235C1340.6 150.453 1322.58 168.548 1298.46 168.548ZM1272.68 127.235C1272.68 141.86 1283.5 153.18 1298.46 153.18C1313.41 153.18 1324.24 141.86 1324.24 127.235C1324.24 112.61 1313.41 101.29 1298.46 101.29C1283.5 101.29 1272.68 112.61 1272.68 127.235ZM1369.44 166.896H1353.08V87.5744H1369.52V97.5722C1372.17 93.5235 1379.69 85.9219 1393.9 85.9219C1415.71 85.9219 1427.2 99.4726 1427.2 118.724V166.896H1410.84V122.195C1410.84 109.057 1403.65 101.456 1391.34 101.456C1379.27 101.456 1369.44 109.057 1369.44 122.195V166.896Z" fill="white"/>
<path d="M111.577 2.16016C96.9244 2.16016 82.4154 5.04619 68.8782 10.6535C55.3411 16.2608 43.041 24.4795 32.6801 34.8404C22.3192 45.2013 14.1005 57.5015 8.49328 71.0387C2.88602 84.5758 -4.65751e-07 99.0849 0 113.737C4.65751e-07 128.39 2.88602 142.899 8.49328 156.436C14.1005 169.973 22.3192 182.274 32.6801 192.634C43.041 202.995 55.3411 211.214 68.8782 216.821C82.4154 222.429 96.9244 225.315 111.577 225.315L111.577 164.795C104.872 164.795 98.2326 163.474 92.038 160.909C85.8434 158.343 80.2149 154.582 75.4738 149.841C70.7327 145.099 66.9718 139.471 64.4059 133.276C61.84 127.082 60.5194 120.442 60.5194 113.737C60.5194 107.032 61.84 100.393 64.4059 94.1985C66.9718 88.0039 70.7327 82.3754 75.4738 77.6342C80.2149 72.8931 85.8434 69.1322 92.038 66.5663C98.2326 64.0004 104.872 62.6798 111.577 62.6798L111.577 2.16016Z" fill="#00D4BF"/>
<path d="M111.376 165.251C125.038 165.251 138.14 159.824 147.801 150.164C157.461 140.503 162.889 127.401 162.889 113.738C162.889 100.076 157.461 86.9739 147.801 77.3134C138.14 67.6528 125.038 62.2256 111.376 62.2256L111.376 78.7969C120.643 78.7969 129.53 82.4783 136.083 89.0311C142.636 95.5839 146.317 104.471 146.317 113.738C146.317 123.006 142.636 131.893 136.083 138.446C129.53 144.999 120.643 148.68 111.376 148.68L111.376 165.251Z" fill="#00D4BF"/>
<ellipse cx="12.0498" cy="12.0498" rx="12.0498" ry="12.0498" transform="matrix(-0.0061573 -0.999981 0.999981 -0.00616019 207.871 125.745)" fill="#00D4BF"/>
<ellipse cx="6.32614" cy="6.32612" rx="6.32614" ry="6.32612" transform="matrix(-0.0061573 -0.999981 0.999981 -0.00616019 189.16 120.138)" fill="#00D4BF"/>
<ellipse cx="3.50432" cy="3.50431" rx="3.50432" ry="3.50431" transform="matrix(-0.0061573 -0.999981 0.999981 -0.00616019 176.107 117.395)" fill="#00D4BF"/>
<ellipse cx="12.0498" cy="12.0498" rx="12.0498" ry="12.0498" transform="matrix(-0.960907 0.27687 0.276867 0.960908 150.959 195.224)" fill="#00D4BF"/>
<ellipse cx="6.32613" cy="6.32613" rx="6.32613" ry="6.32613" transform="matrix(-0.960907 0.27687 0.276867 0.960908 140.783 180.612)" fill="#00D4BF"/>
<ellipse cx="3.50432" cy="3.50432" rx="3.50432" ry="3.50432" transform="matrix(-0.960907 0.27687 0.276867 0.960908 134.971 170.62)" fill="#00D4BF"/>
<ellipse cx="12.0498" cy="12.0498" rx="12.0498" ry="12.0498" transform="matrix(-0.653317 0.757085 0.757083 0.653319 195.211 162.223)" fill="#00D4BF"/>
<ellipse cx="6.32614" cy="6.32612" rx="6.32614" ry="6.32612" transform="matrix(-0.653317 0.757085 0.757083 0.653319 177.336 154.354)" fill="#00D4BF"/>
<ellipse cx="3.50432" cy="3.50431" rx="3.50432" ry="3.50431" transform="matrix(-0.653317 0.757085 0.757083 0.653319 165.629 147.977)" fill="#00D4BF"/>
<ellipse cx="12.0498" cy="12.0498" rx="12.0498" ry="12.0498" transform="matrix(-0.960907 -0.27687 0.276867 -0.960908 150.959 30.082)" fill="#00D4BF"/>
<ellipse cx="6.32613" cy="6.32613" rx="6.32613" ry="6.32613" transform="matrix(-0.960907 -0.27687 0.276867 -0.960908 140.783 44.6934)" fill="#00D4BF"/>
<ellipse cx="3.50432" cy="3.50432" rx="3.50432" ry="3.50432" transform="matrix(-0.960907 -0.27687 0.276867 -0.960908 134.971 54.6855)" fill="#00D4BF"/>
<ellipse cx="12.0498" cy="12.0498" rx="12.0498" ry="12.0498" transform="matrix(-0.653317 -0.757085 0.757083 -0.653319 195.211 63.0771)" fill="#00D4BF"/>
<ellipse cx="6.32614" cy="6.32612" rx="6.32614" ry="6.32612" transform="matrix(-0.653317 -0.757085 0.757083 -0.653319 177.336 70.9463)" fill="#00D4BF"/>
<ellipse cx="3.50432" cy="3.50431" rx="3.50432" ry="3.50431" transform="matrix(-0.653317 -0.757085 0.757083 -0.653319 165.629 77.3232)" fill="#00D4BF"/>
</svg>
