<svg width="1439" height="226" viewBox="0 0 1439 226" fill="none" xmlns="http://www.w3.org/2000/svg">
<path d="M337.353 166.736H302.155L345.285 54.53H384.615L427.664 166.736H392.465L385.194 147.98H344.624L337.353 166.736ZM364.95 85.5974L352.061 123.11H377.757L364.95 85.5974ZM432.049 166.736V54.53H481.46C513.188 54.53 538.637 79.4831 538.637 110.551C538.637 141.535 513.188 166.736 481.46 166.736H432.049ZM479.725 81.053H465.017V140.296H479.477C494.763 140.296 505.256 126.332 505.256 110.551C505.256 94.8516 494.928 81.053 479.725 81.053ZM582.353 54.53V166.736H549.385V54.53H582.353ZM634.669 166.736V54.53H712.75V70.3116H652.02V101.627H699.695V117.409H652.02V166.736H634.669ZM752.252 168.389C728.125 168.389 710.113 150.294 710.113 127.076C710.113 103.858 728.125 85.7627 752.252 85.7627C776.379 85.7627 794.392 103.858 794.392 127.076C794.392 150.294 776.379 168.389 752.252 168.389ZM726.473 127.076C726.473 141.701 737.297 153.02 752.252 153.02C767.208 153.02 778.032 141.701 778.032 127.076C778.032 112.451 767.208 101.131 752.252 101.131C737.297 101.131 726.473 112.451 726.473 127.076ZM805.801 87.4152H822.161V132.116C822.161 145.254 829.349 152.855 841.495 152.855C853.972 152.855 863.804 145.254 863.804 132.116V87.4152H880.164V166.736H863.722V156.739C861.078 160.787 853.559 168.389 838.934 168.389C817.286 168.389 805.801 154.838 805.801 135.586V87.4152ZM914.956 166.736H898.596V87.4152H915.039V97.413C917.683 93.3643 925.202 85.7627 939.414 85.7627C961.227 85.7627 972.712 99.3134 972.712 118.565V166.736H956.352V122.036C956.352 108.898 949.164 101.296 936.852 101.296C924.789 101.296 914.956 108.898 914.956 122.036V166.736ZM984.286 126.663C984.286 102.288 1001.56 85.7627 1024.11 85.7627C1037.58 85.7627 1046.5 90.7203 1052.37 98.2392V50.3987H1068.73V166.736H1052.37V155.912C1046.5 163.431 1037.58 168.389 1024.11 168.389C1001.56 168.389 984.286 151.037 984.286 126.663ZM1026.1 100.47C1010.81 100.47 1000.65 112.038 1000.65 126.663C1000.65 141.287 1010.81 153.681 1026.1 153.681C1041.38 153.681 1052.29 141.287 1052.29 126.663C1052.29 112.038 1041.3 100.47 1026.1 100.47ZM1081.87 144.179C1081.87 129.307 1096.09 119.061 1116.91 119.061C1126.41 119.061 1133.27 121.044 1136.9 122.779V118.483C1136.9 108.568 1128.89 101.131 1116.58 101.131C1106.74 101.131 1098.56 106.75 1093.86 112.12L1083.53 101.875C1089.64 94.1079 1102.37 85.7627 1116.83 85.7627C1139.13 85.7627 1153.26 97.8261 1153.26 117.078V166.736H1137.23V156.491C1132.36 163.927 1123.19 168.389 1112.53 168.389C1095.34 168.389 1081.87 159.713 1081.87 144.179ZM1098.4 143.601C1098.4 150.789 1105.59 155.003 1114.92 155.003C1127.81 155.003 1136.9 146.162 1136.9 135.338C1133.52 133.603 1125.91 131.538 1117.32 131.538C1106.99 131.538 1098.4 135.008 1098.4 143.601ZM1174.42 101.296H1160.29V87.4152H1174.67V61.9664H1190.62V87.4152H1215.82V101.296H1190.78V140.957C1190.78 149.385 1195.66 153.599 1203.75 153.599C1207.56 153.599 1212.76 152.525 1216.64 150.872L1218.79 164.919C1214.83 166.984 1207.8 168.389 1201.44 168.389C1184.83 168.389 1174.42 159.052 1174.42 142.94V101.296ZM1225.57 60.8096C1225.57 54.8605 1229.71 50.7292 1235.65 50.7292C1241.6 50.7292 1245.82 54.8605 1245.82 60.8096C1245.82 66.7587 1241.6 70.89 1235.65 70.89C1229.71 70.89 1225.57 66.7587 1225.57 60.8096ZM1243.83 166.736H1227.48V87.4152H1243.83V166.736ZM1298.46 168.389C1274.33 168.389 1256.32 150.294 1256.32 127.076C1256.32 103.858 1274.33 85.7627 1298.46 85.7627C1322.58 85.7627 1340.6 103.858 1340.6 127.076C1340.6 150.294 1322.58 168.389 1298.46 168.389ZM1272.68 127.076C1272.68 141.701 1283.5 153.02 1298.46 153.02C1313.41 153.02 1324.24 141.701 1324.24 127.076C1324.24 112.451 1313.41 101.131 1298.46 101.131C1283.5 101.131 1272.68 112.451 1272.68 127.076ZM1369.44 166.736H1353.08V87.4152H1369.52V97.413C1372.17 93.3643 1379.69 85.7627 1393.9 85.7627C1415.71 85.7627 1427.2 99.3134 1427.2 118.565V166.736H1410.84V122.036C1410.84 108.898 1403.65 101.296 1391.34 101.296C1379.27 101.296 1369.44 108.898 1369.44 122.036V166.736Z" fill="black"/>
<path d="M111.577 2.00098C96.9244 2.00098 82.4154 4.88701 68.8782 10.4943C55.3411 16.1016 43.041 24.3203 32.6801 34.6812C22.3192 45.0421 14.1005 57.3423 8.49328 70.8795C2.88602 84.4167 -4.65751e-07 98.9257 0 113.578C4.65751e-07 128.231 2.88602 142.74 8.49328 156.277C14.1005 169.814 22.3192 182.114 32.6801 192.475C43.041 202.836 55.3411 211.055 68.8782 216.662C82.4154 222.269 96.9244 225.156 111.577 225.156L111.577 164.636C104.872 164.636 98.2326 163.315 92.038 160.749C85.8434 158.183 80.2149 154.423 75.4738 149.681C70.7327 144.94 66.9718 139.312 64.4059 133.117C61.84 126.923 60.5194 120.283 60.5194 113.578C60.5194 106.873 61.84 100.234 64.4059 94.0393C66.9718 87.8447 70.7327 82.2162 75.4738 77.475C80.2149 72.7339 85.8434 68.973 92.038 66.4071C98.2326 63.8413 104.872 62.5206 111.577 62.5206L111.577 2.00098Z" fill="#00D4BF"/>
<path d="M111.376 165.091C125.038 165.091 138.14 159.664 147.801 150.003C157.461 140.343 162.889 127.24 162.889 113.578C162.889 99.9163 157.461 86.8138 147.801 77.1532C138.14 67.4927 125.038 62.0654 111.376 62.0654L111.376 78.6368C120.643 78.6368 129.53 82.3181 136.083 88.8709C142.636 95.4237 146.317 104.311 146.317 113.578C146.317 122.845 142.636 131.733 136.083 138.286C129.53 144.839 120.643 148.52 111.376 148.52L111.376 165.091Z" fill="#00D4BF"/>
<ellipse cx="12.0498" cy="12.0498" rx="12.0498" ry="12.0498" transform="matrix(-0.0061573 -0.999981 0.999981 -0.00616019 207.871 125.585)" fill="#00D4BF"/>
<ellipse cx="6.32614" cy="6.32612" rx="6.32614" ry="6.32612" transform="matrix(-0.0061573 -0.999981 0.999981 -0.00616019 189.16 119.978)" fill="#00D4BF"/>
<ellipse cx="3.50432" cy="3.50431" rx="3.50432" ry="3.50431" transform="matrix(-0.0061573 -0.999981 0.999981 -0.00616019 176.107 117.234)" fill="#00D4BF"/>
<ellipse cx="12.0498" cy="12.0498" rx="12.0498" ry="12.0498" transform="matrix(-0.960907 0.27687 0.276867 0.960908 150.959 195.064)" fill="#00D4BF"/>
<ellipse cx="6.32613" cy="6.32613" rx="6.32613" ry="6.32613" transform="matrix(-0.960907 0.27687 0.276867 0.960908 140.783 180.453)" fill="#00D4BF"/>
<ellipse cx="3.50432" cy="3.50432" rx="3.50432" ry="3.50432" transform="matrix(-0.960907 0.27687 0.276867 0.960908 134.971 170.461)" fill="#00D4BF"/>
<ellipse cx="12.0498" cy="12.0498" rx="12.0498" ry="12.0498" transform="matrix(-0.653317 0.757085 0.757083 0.653319 195.211 162.062)" fill="#00D4BF"/>
<ellipse cx="6.32614" cy="6.32612" rx="6.32614" ry="6.32612" transform="matrix(-0.653317 0.757085 0.757083 0.653319 177.336 154.193)" fill="#00D4BF"/>
<ellipse cx="3.50432" cy="3.50431" rx="3.50432" ry="3.50431" transform="matrix(-0.653317 0.757085 0.757083 0.653319 165.629 147.816)" fill="#00D4BF"/>
<ellipse cx="12.0498" cy="12.0498" rx="12.0498" ry="12.0498" transform="matrix(-0.960907 -0.27687 0.276867 -0.960908 150.959 29.9229)" fill="#00D4BF"/>
<ellipse cx="6.32613" cy="6.32613" rx="6.32613" ry="6.32613" transform="matrix(-0.960907 -0.27687 0.276867 -0.960908 140.783 44.5342)" fill="#00D4BF"/>
<ellipse cx="3.50432" cy="3.50432" rx="3.50432" ry="3.50432" transform="matrix(-0.960907 -0.27687 0.276867 -0.960908 134.971 54.5264)" fill="#00D4BF"/>
<ellipse cx="12.0498" cy="12.0498" rx="12.0498" ry="12.0498" transform="matrix(-0.653317 -0.757085 0.757083 -0.653319 195.211 62.918)" fill="#00D4BF"/>
<ellipse cx="6.32614" cy="6.32612" rx="6.32614" ry="6.32612" transform="matrix(-0.653317 -0.757085 0.757083 -0.653319 177.336 70.7871)" fill="#00D4BF"/>
<ellipse cx="3.50432" cy="3.50431" rx="3.50432" ry="3.50431" transform="matrix(-0.653317 -0.757085 0.757083 -0.653319 165.629 77.1641)" fill="#00D4BF"/>
</svg>
