<svg width="20" height="20" viewBox="0 0 20 20" fill="none" xmlns="http://www.w3.org/2000/svg">
  <path
    d="M0 10.0024C0.00208664 8.97205 0.156412 7.92923 0.475496 6.94896C0.784147 5.99786 1.23044 5.08227 1.81019 4.26675C2.11467 3.83708 2.44833 3.42622 2.81331 3.04662C3.17827 2.66911 3.57451 2.33332 3.98953 2.01422C4.78619 1.40312 5.6746 0.935926 6.6172 0.589666C7.5807 0.235096 8.60884 0.0473749 9.63278 0.00774904C10.6713 -0.0339668 11.7308 0.0932631 12.7297 0.376918C13.6869 0.64806 14.6191 1.06936 15.4512 1.61581C16.2792 2.16016 17.0383 2.82133 17.6681 3.58681C17.9997 3.99142 18.3104 4.41483 18.5815 4.86326C18.8568 5.32005 19.082 5.80182 19.2843 6.29407C19.6764 7.24517 19.8933 8.25881 19.9725 9.28497C20.0518 10.3216 19.9579 11.3811 19.7119 12.3906C19.4762 13.3646 19.08 14.3157 18.5586 15.1729C18.0477 16.0134 17.4095 16.7914 16.6733 17.4463C15.9288 18.1075 15.0946 18.6706 14.1854 19.0794C13.6995 19.2984 13.2031 19.4903 12.6901 19.6342C12.1604 19.7823 11.6202 19.874 11.0759 19.9387C10.0374 20.0597 8.98004 19.9971 7.9561 19.7906C6.96758 19.5904 6.00409 19.2254 5.12402 18.7332C4.26482 18.2534 3.46606 17.6361 2.78621 16.9249C2.10215 16.2095 1.50989 15.3856 1.06986 14.4971C0.619419 13.5919 0.291998 12.6242 0.137669 11.623C0.0542507 11.0849 0.00211334 10.5447 0.00211334 9.99825"
    fill="#CF2C2C" />
  <path
    d="M9.99895 15.0404C9.41294 15.0404 8.96245 14.5586 8.94369 13.9851C8.92701 13.4136 9.44004 12.9297 9.99894 12.9297C10.5578 12.9297 11.073 13.4115 11.0542 13.9851C11.0458 14.2562 10.9499 14.5148 10.7601 14.7151C10.5537 14.9299 10.2909 15.0237 9.99895 15.0404Z"
    fill="white" />
  <path
    d="M10.8301 5.40534V7.25536V10.2066V10.8866C10.8301 11.3225 10.4464 11.7417 9.99589 11.7208C9.54335 11.7 9.16171 11.3538 9.16171 10.8866V9.03654V6.08527V5.40534C9.16171 4.96942 9.54541 4.5502 9.99589 4.57106C10.4484 4.58983 10.8301 4.93606 10.8301 5.40534Z"
    fill="white" />
</svg>
  