<?xml version="1.0" encoding="UTF-8"?>
<svg xmlns="http://www.w3.org/2000/svg" xmlns:xlink="http://www.w3.org/1999/xlink" id="layer" viewBox="0 0 652 200">
  <defs>
    <style>.cls-1{clip-path:url(#clippath-4);}.cls-1,.cls-2,.cls-3,.cls-4,.cls-5,.cls-6,.cls-7{fill:none;}.cls-2{clip-path:url(#clippath-2);}.cls-8{fill:url(#Dégradé_sans_nom_2);}.cls-3{clip-path:url(#clippath-5);}.cls-9{fill:url(#Dégradé_sans_nom_5);}.cls-10{fill:url(#Dégradé_sans_nom);}.cls-11{fill:#535a60;}.cls-4{clip-path:url(#clippath-3);}.cls-12{fill:url(#Dégradé_sans_nom_3);}.cls-13{fill:url(#Dégradé_sans_nom_4);}.cls-6{clip-path:url(#clippath);}.cls-7{clip-path:url(#clippath-1);}.cls-14{fill:url(#Dégradé_sans_nom_6);}</style>
    <clipPath id="clippath">
      <path class="cls-5" d="m562.1,67.9c3.7,10-3.6,21.8-16.3,26.5-12.6,4.6-25.7.4-29.5-9.4-.1-.2-.2-.4-.3-.7.1,17.8,22,38.5,47,23.8,13.9-8.2,17.7-29.5,9.1-40.7-4.6-6-10.4-7.8-17.3-8,3.4,2,6,4.9,7.3,8.5"></path>
    </clipPath>
    <linearGradient id="Dégradé_sans_nom" x1="-288.59" y1="49.64" x2="-279.52" y2="49.64" gradientTransform="translate(1308.18 -477.3) rotate(-26.74) scale(3.34)" gradientUnits="userSpaceOnUse">
      <stop offset="0" stop-color="#9e092f"></stop>
      <stop offset="1" stop-color="#e50051"></stop>
    </linearGradient>
    <clipPath id="clippath-1">
      <path class="cls-5" d="m511,21.6c45-3,83.5,22.7,86.3,57.9.8,10.5-1.6,20.6-6.6,29.8,13.3-4.9,23.1-13.9,26.5-25.8,7-24.8-16.7-53.2-52.8-63.3-8.8-2.5-17.5-3.6-25.7-3.6-10.2-.1-19.7,1.7-27.7,5"></path>
    </clipPath>
    <linearGradient id="Dégradé_sans_nom_2" x1="-280.86" y1="-58.1" x2="-271.8" y2="-58.1" gradientTransform="translate(1794.98 1397.29) rotate(35.47) scale(6.45)" gradientUnits="userSpaceOnUse">
      <stop offset="0" stop-color="#9e092f"></stop>
      <stop offset="1" stop-color="#e50051"></stop>
    </linearGradient>
    <clipPath id="clippath-2">
      <path class="cls-5" d="m564.3,128.6c-20.1,7.4-40.2,1.3-48.9-11.2,1,18.4,16.3,28.7,31.2,28.7,26.9,0,38.1-24.5,39.7-32.5-5.7,6.4-13.2,11.7-22,15"></path>
    </clipPath>
    <linearGradient id="Dégradé_sans_nom_3" x1="-370.39" y1="-153.1" x2="-361.33" y2="-153.1" gradientTransform="translate(-970.75 483.93) rotate(144) scale(3.97)" gradientUnits="userSpaceOnUse">
      <stop offset="0" stop-color="#9e092f"></stop>
      <stop offset="1" stop-color="#e50051"></stop>
    </linearGradient>
    <clipPath id="clippath-3">
      <path class="cls-5" d="m487.2,38.1c-34.5,17.2-50.1,55.9-34.9,86.4,10.9,21.8,34.6,33.5,59.8,32.1-29.4-8.3-48.4-38.8-43.4-71.5,4.7-30.8,29.4-53.3,57.7-55-1.7-.1-3.3-.2-5-.2-11.3,0-23.1,2.6-34.2,8.2"></path>
    </clipPath>
    <linearGradient id="Dégradé_sans_nom_4" x1="-378.97" y1="-27.9" x2="-369.91" y2="-27.9" gradientTransform="translate(-53.63 -2688.21) rotate(-105.17) scale(7.57)" gradientUnits="userSpaceOnUse">
      <stop offset="0" stop-color="#9e092f"></stop>
      <stop offset="1" stop-color="#e50051"></stop>
    </linearGradient>
    <clipPath id="clippath-4">
      <path class="cls-5" d="m486.1,94.1c0,20.4,12.6,37.8,30.3,45-9.8-11.3-13.9-28.7-9.5-46.6,6.7-27.3,30.8-45.4,53.8-40.4.6.1,1.2.3,1.8.5-7.9-6-17.5-9.7-27.9-9.7-26.8.1-48.5,24.4-48.5,51.2"></path>
    </clipPath>
    <linearGradient id="Dégradé_sans_nom_5" x1="-379.08" y1="47.87" x2="-370.02" y2="47.87" gradientTransform="translate(747.38 -1190.18) rotate(-72.77) scale(3.48)" gradientUnits="userSpaceOnUse">
      <stop offset="0" stop-color="#9e092f"></stop>
      <stop offset="1" stop-color="#e50051"></stop>
    </linearGradient>
    <clipPath id="clippath-5">
      <path class="cls-5" d="m611.6,110.1c-8.8,42.3-58.9,67.6-111.9,56.6-9.5-2-18.4-5-26.6-8.8,11.2,12.1,26.6,21.4,44.8,25.6,43.2,10,85.2-12.5,93.9-50.2,2-8.8,2-17.7.3-26.2-.1,1-.3,2-.5,3"></path>
    </clipPath>
    <linearGradient id="Dégradé_sans_nom_6" x1="-350.36" y1="-88.96" x2="-341.3" y2="-88.96" gradientTransform="translate(-3220.03 1517.67) rotate(145.56) scale(11.25)" gradientUnits="userSpaceOnUse">
      <stop offset="0" stop-color="#9e092f"></stop>
      <stop offset="1" stop-color="#e50051"></stop>
    </linearGradient>
  </defs>
  <g class="cls-6">
    <polygon class="cls-10" points="490.5 72.3 567.6 33.5 606.2 110 529.1 148.9 490.5 72.3"></polygon>
  </g>
  <g class="cls-7">
    <polygon class="cls-8" points="549.1 -36.9 667.9 47.8 586 162.7 467.1 78 549.1 -36.9"></polygon>
  </g>
  <g class="cls-2">
    <polygon class="cls-12" points="601.7 134.9 539.9 179.8 500 124.8 561.8 79.9 601.7 134.9"></polygon>
  </g>
  <g class="cls-4">
    <polygon class="cls-13" points="443.2 180.5 404.8 38.6 520.3 7.3 558.7 149.2 443.2 180.5"></polygon>
  </g>
  <g class="cls-1">
    <polygon class="cls-9" points="458.9 130.7 492.8 21.4 589.7 51.4 555.8 160.8 458.9 130.7"></polygon>
  </g>
  <path class="cls-11" d="m279.8,61.4c-31.7,0-53,16.5-53,39.9s21.3,39.8,53,39.8,53-16.3,53-39.8-21.3-39.9-53-39.9m0,66.8c-18.7,0-30.4-11.5-30.4-26.9s11.6-27,30.4-27,30.4,11.6,30.4,27-11.7,26.9-30.4,26.9M71.5,61.4c-31.9,0-53.2,16.5-53.2,39.9,0,30.4,29.5,39.8,56.8,39.8,23.1,0,45.3-4.8,45.3-14.5v-7.7c-7.8,4.2-26.1,8.9-43.2,8.9s-32-4.5-35.5-19.5h79.6c.4-2.6.9-6.5.9-10.4.1-22.6-23.2-36.5-50.7-36.5m-29.7,33c3-11.8,13.7-20.1,29.6-20.1,19.9,0,28,12.4,28,20.1h-57.6Zm341.5-33c10.1,0,20.6,1.1,30.4,3l-1.5,16.8c-8.6-2.3-17.2-3.9-26.1-3.9-5,0-10.1.5-15.3,1.7v50.5c0,6.8-3.5,9.8-10.6,9.8h-11.3v-72.7c10.2-3.5,22.1-5.2,34.4-5.2m-239.6-15.7c0-6.9,3.5-10,10.7-10h11.2v103.5h-21.9V45.7m45,27.5c0-7,3.5-10,10.7-10h11.2v76h-21.9v-66m11.3-38.8c10.4,0,12.1,6.8,12.1,10.4,0,6.5-4.2,10.4-12.1,10.4-7.4,0-12.2-4.2-12.2-10.4s4.8-10.4,12.2-10.4"></path>
  <g class="cls-3">
    <polygon class="cls-14" points="654.1 165.8 518.2 259.1 432.9 134.7 568.8 41.5 654.1 165.8"></polygon>
  </g>
</svg>
