<?xml version="1.0" encoding="UTF-8"?>
<svg xmlns="http://www.w3.org/2000/svg" width="128" height="16" viewBox="0 0 128 16" fill="none">
  <path d="M128 15.7407V13.0159H120.647V9.14545H127.346V6.68073H120.647V3.76137H128V1.03695H117.439V15.7407H128ZM115.541 15.7407V12.7997H108.623V1.03695H105.416V15.7407H115.541ZM103.474 15.7407V12.7997H96.5569V1.03695H93.3492V15.7407H103.474ZM90.6434 15.7407V13.0159H83.2896V9.14545H89.9887V6.68073H83.2896V3.76137H90.6434V1.03695H80.0819V15.7407H90.6434ZM73.1431 15.7407V3.82646H78.1619V1.03695H64.9384V3.82646H69.9572V15.7407H73.1431ZM59.8321 11.308L52.4132 1.03695H48.9654V15.7407H52.1513V5.46961L59.5702 15.7407H63.018V1.03695H59.8321V11.308ZM39.2772 4.28041L41.4372 9.68609H37.095L39.2772 4.28041ZM47.1545 15.7407L41.0662 1.03695H37.5097L31.4214 15.7407H34.6509L36.0259 12.3242H42.4845L43.8595 15.7407H47.1545ZM26.4246 6.5293H19.2239V1.03695H16.0162V15.7407H19.2239V9.29689H26.4246V15.7407H29.6105V1.03695H26.4246V6.5293ZM7.11341 16C9.03371 16 11.3029 15.2864 13.2232 14.1619V10.6375L11.1501 11.8483C9.90638 12.5835 8.33529 13.1242 7.13523 13.1242C4.90937 13.1242 3.31645 11.481 3.31645 8.38864C3.31645 5.27501 4.95302 3.65345 7.20071 3.65345C8.37894 3.65345 9.92821 4.19408 11.1501 4.90739L13.2232 6.11851V2.61534C11.3029 1.49124 9.03371 0.777588 7.11341 0.777588C3.09854 0.777588 0 3.54518 0 8.38864C0 13.2324 3.09854 16 7.11341 16Z" fill="#1D1D1B"></path>
</svg>
