<?xml version="1.0" encoding="UTF-8"?>
<svg xmlns="http://www.w3.org/2000/svg" viewBox="0 0 36 36">
  <path d="M16.6268 0.00832373C10.7488 -0.263331 11.0014 6.2046 11.0014 6.2046C11.0014 6.2046 11.2519 -0.263331 5.37294 0.00832373C2.85484 0.12354 -1.91281 3.38231 2.36486 10.2889C3.4731 12.0763 7.11548 17.39 9.29791 20.5547L5.35993 33.8944H4.56832V36H8.57645V33.8944H7.78484L8.88707 30.1504H13.1036L14.2059 33.8944H13.4153V36H17.4234V33.8944H16.6318L12.7028 20.5537C14.8852 17.389 18.5276 12.0763 19.6349 10.2889C23.9135 3.38231 19.1429 0.12354 16.6268 0.00832373ZM9.51235 28.0448L10.9993 23.0081L12.4854 28.0448H9.51235Z"></path>
</svg>
