<?xml version="1.0" encoding="UTF-8"?>
<svg xmlns="http://www.w3.org/2000/svg" id="Calque_1" data-name="Calque 1" version="1.1" viewBox="0 0 292.5 214.5">
  <defs>
    <style>
      .cls-1 {
        fill: #293273;
      }

      .cls-1, .cls-2, .cls-3, .cls-4 {
        stroke-width: 0px;
      }

      .cls-2 {
        fill: #000;
      }

      .cls-3 {
        fill: #9d9d9c;
      }

      .cls-4 {
        fill: #e10814;
      }
    </style>
  </defs>
  <g>
    <path class="cls-2" d="M25.5,63h6.1l5.7,9.7,5.7-9.7h6.1v23.7h-4.8v-16.8l-5.3,8.7h-3.4l-5.3-8.7v16.8h-4.8v-23.7Z"></path>
    <path class="cls-2" d="M55.6,63h4.8v23.7h-4.8v-23.7Z"></path>
    <path class="cls-2" d="M67.1,63h6.2l10.6,17v-17h4.8v23.7h-6.2l-10.6-17v17h-4.8v-23.7Z"></path>
    <path class="cls-2" d="M95.2,63h4.8v23.7h-4.8v-23.7Z"></path>
    <path class="cls-2" d="M108,80.1c1.4,1.8,3.3,2.9,5.2,2.9s3-1,3-2.7c0-4.2-10.8-3.3-10.8-11.2s3.1-6.9,7.6-6.9,6.3,1.6,8.3,4l-3.5,3.1c-1.4-1.8-2.9-2.9-4.7-2.9s-2.7,1.1-2.7,2.5c0,4.2,10.8,3.2,10.8,11.3,0,4.4-3.5,7.1-7.8,7.1s-6.7-1.5-8.8-4l3.5-3.2Z"></path>
    <path class="cls-2" d="M123.6,63h19.4v4.4h-7.3v19.3h-4.8v-19.3h-7.3v-4.4Z"></path>
    <path class="cls-2" d="M147.3,63h13.8v4.1h-9v5.5h7.6v4.1h-7.6v5.9h9v4.1h-13.8v-23.7ZM147.7,56.4h4.9l3.8,4.6h-4.4l-4.4-4.6Z"></path>
    <path class="cls-2" d="M166.7,63h7.2c5.2,0,8.4,2.7,8.4,7.1s-1.4,5-3.8,6.1l7.4,10.5h-5.8l-6.3-9.6h-2.5v9.6h-4.8v-23.7ZM171.5,67.1v5.9h2.7c2,0,3.2-1.1,3.2-3s-1.2-2.9-3.2-2.9h-2.7Z"></path>
    <path class="cls-2" d="M189,63h13.8v4.1h-9v5.5h7.6v4.1h-7.6v5.9h9v4.1h-13.8v-23.7Z"></path>
    <path class="cls-2" d="M25.5,97.1h9.3c7.5,0,12.6,5.4,12.6,11.8s-5.1,11.8-12.6,11.8h-9.3v-23.7ZM30.3,101.5v15h4.6c4.4,0,7.6-3.3,7.6-7.5s-3.2-7.5-7.6-7.5h-4.6Z"></path>
    <path class="cls-2" d="M52,97.1h13.8v4.1h-9v5.5h7.6v4.1h-7.6v5.9h9v4.1h-13.8v-23.7Z"></path>
    <path class="cls-2" d="M80.2,97.1h4.8v19.3h9v4.4h-13.8v-23.7Z"></path>
    <path class="cls-2" d="M105.2,97.1h6.3l9,23.7h-5.1l-2.3-6.2h-9.5l-2.3,6.2h-5.1l9-23.7ZM111.6,110.5l-3.2-8.9-3.2,8.9h6.5Z"></path>
    <path class="cls-2" d="M149.7,113.7l3.8,2.9c-2.2,2.9-5.7,4.8-10,4.8-7.5,0-12.6-5.8-12.6-12.5s5.1-12.5,12.6-12.5,7.8,1.9,10,4.8l-3.8,2.9c-1.4-1.9-3.5-3.2-6.2-3.2-4.5,0-7.6,3.5-7.6,8s3.2,8,7.6,8,4.8-1.3,6.2-3.2Z"></path>
    <path class="cls-2" d="M171.3,97.1h4.8v14.4c0,6.2-3.7,9.9-9.6,9.9s-9.6-3.7-9.6-9.9v-14.4h4.8v14.8c0,3.2,1.8,5,4.8,5s4.8-1.9,4.8-5v-14.8Z"></path>
    <path class="cls-2" d="M182.1,97.1h4.8v19.3h9v4.4h-13.8v-23.7Z"></path>
    <path class="cls-2" d="M194.9,97.1h19.4v4.4h-7.3v19.3h-4.8v-19.3h-7.3v-4.4Z"></path>
    <path class="cls-2" d="M232.5,97.1h4.8v14.4c0,6.2-3.7,9.9-9.6,9.9s-9.6-3.7-9.6-9.9v-14.4h4.8v14.8c0,3.2,1.8,5,4.8,5s4.8-1.9,4.8-5v-14.8Z"></path>
    <path class="cls-2" d="M243.3,97.1h7.2c5.2,0,8.4,2.7,8.4,7.1s-1.4,5-3.8,6.1l7.4,10.5h-5.8l-6.3-9.6h-2.5v9.6h-4.8v-23.7ZM248.1,101.2v5.9h2.7c2,0,3.2-1.1,3.2-3s-1.2-2.9-3.2-2.9h-2.7Z"></path>
    <path class="cls-2" d="M265.6,97.1h13.8v4.1h-9v5.5h7.6v4.1h-7.6v5.9h9v4.1h-13.8v-23.7Z"></path>
  </g>
  <g>
    <path class="cls-2" d="M102.5,186.2c.6,0,1.2.5.9,1.7l-3,.7c.5-1.4,1.4-2.4,2.1-2.4M104.2,191h-.6c-.7.9-1.5,1.6-2.3,1.6s-1.2-.5-1.2-1.6,0-.9.1-1.3l4.8-1.6c.9-2.2-.2-3.2-1.5-3.2-2.3,0-4.9,3.8-4.9,7.1s.7,2.3,1.8,2.3,2.7-1.3,3.8-3.4M103.2,184l3.4-3.2v-.4h-1.8l-2.1,3.5h.5ZM92.8,186.2h1.6l-2.5,6.9c-.2.6,0,1.2.7,1.2,1.4,0,3.8-1.4,4.6-3.4h-.5c-.6.7-1.9,1.6-2.9,1.8l2.3-6.5h2.4l.3-1h-2.3l.9-2.5h-.9l-1.6,2.5-2,.3v.7ZM90.7,185.9c.2-.6-.2-1-.6-1-1.4,0-3,1.3-3.7,3h.5c.5-.6,1.2-1.4,1.9-1.5l-2.7,6.9c-.2.6.2,1,.6,1,1.3,0,2.9-1.3,3.5-3h-.5c-.5.6-1.2,1.4-1.9,1.5l2.8-6.9ZM91.2,182.4c.6,0,1.1-.5,1.1-1.1s-.5-1.1-1.1-1.1-1.1.5-1.1,1.1.5,1.1,1.1,1.1M75.9,193.1c-.3.8,0,1.3.8,1.3s.7-.1.9-.6l1.8-4.9c.9-1,2.6-2.2,3.3-2.2s.4.4.1,1l-2.8,5.4c-.3.5,0,1.2.7,1.2,1.4,0,3-1.3,3.7-3h-.5c-.5.6-1.2,1.4-1.9,1.5l2.4-4.9c.3-.6.5-1.2.5-1.7,0-.8-.5-1.3-1.3-1.3-1.2,0-2.4,1.4-3.9,3v-1.3c0-.9-.3-1.7-1.1-1.7s-1,.5-1.5,1.1v.2c.9,0,1.3,1.3.7,2.7l-1.9,4.2ZM75.8,187c.3-1.1.2-2.1-.7-2.1s-1.3.8-2.3,3v-1.3c0-.9-.3-1.7-1.1-1.7s-1.9,1.5-2.5,3h.5c.5-.7.9-1.1,1.3-1.1s.6.6,0,2.1l-1.9,4.2c-.3.8,0,1.3.8,1.3s.7-.1.9-.6l1.8-4.9c.5-.6,1-1.2,1.6-1.8h1.8ZM65.2,186.2c.6,0,1.2.5.9,1.7l-3,.7c.5-1.4,1.4-2.4,2.1-2.4M66.8,191h-.6c-.7.9-1.5,1.6-2.3,1.6s-1.2-.5-1.2-1.6,0-.9.1-1.3l4.8-1.6c.9-2.2-.2-3.2-1.5-3.2-2.3,0-4.9,3.8-4.9,7.1s.7,2.3,1.8,2.3,2.7-1.3,3.8-3.4M55.5,186.2h1.6l-2.5,6.9c-.2.6,0,1.2.7,1.2,1.4,0,3.8-1.4,4.6-3.4h-.5c-.6.7-1.9,1.6-2.9,1.8l2.3-6.5h2.4l.3-1h-2.3l.9-2.5h-.9l-1.6,2.5-2,.3v.7ZM46.7,191.6c0-2.1,2.4-5,3.7-5s.6,0,.8.1l-1.4,3.7c-.8,1-2,2.2-2.6,2.2s-.5-.3-.5-.9M54,184.5h-.7c0,0-.8.7-.8.7h-.2c-4,0-7.4,4.4-7.4,7.7s.6,1.4,1.4,1.4,2-1.5,3.2-3v.6c-.2,1.6.3,2.5,1.1,2.5s1.9-1.5,2.5-3h-.5c-.5.7-.9,1.1-1.3,1.1s-.6-.7,0-2.1l2.6-5.9ZM45.6,187c.3-1.1.2-2.1-.7-2.1s-1.3.8-2.3,3v-1.3c0-.9-.3-1.7-1.1-1.7s-1.9,1.5-2.5,3h.5c.5-.7.9-1.1,1.3-1.1s.6.6,0,2.1l-1.9,4.2c-.3.8,0,1.3.8,1.3s.7-.1.9-.6l1.8-4.9c.5-.6,1-1.2,1.6-1.8h1.8ZM32.3,194l.2-.5c-2.3-.4-2.6-.4-1.7-3l.9-2.6h2.6c1.1,0,1.2.5,1,1.7h.7l1.5-4.2h-.7c-.6,1-1,1.7-2.3,1.7h-2.5l1.3-3.7c.4-1.2.7-1.4,2.2-1.4h1.1c1.6,0,1.8.4,1.8,2.1h.6l.5-2.8h-9.6l-.2.5c1.9.4,2,.6,1.2,3l-2.1,5.7c-.9,2.4-1.2,2.6-3.4,3l-.2.5h6.8Z"></path>
    <path class="cls-2" d="M79.3,164.5c.6,0,1.2.5.9,1.7l-3,.7c.5-1.4,1.4-2.4,2.1-2.4M80.9,169.3h-.6c-.7.9-1.5,1.6-2.3,1.6s-1.2-.5-1.2-1.6,0-.9.1-1.3l4.8-1.6c.9-2.2-.2-3.2-1.5-3.2-2.3,0-4.9,3.8-4.9,7.1s.7,2.3,1.8,2.3,2.7-1.3,3.8-3.4M80,162.3l3.4-3.2v-.4h-1.8l-2.1,3.5h.5ZM69.6,164.5h1.6l-2.5,6.9c-.2.6,0,1.2.7,1.2,1.4,0,3.8-1.4,4.6-3.4h-.5c-.6.7-1.9,1.6-2.9,1.8l2.3-6.5h2.4l.3-1h-2.3l.9-2.5h-.9l-1.6,2.5-2,.3v.7ZM67.4,164.2c.2-.6-.2-1-.6-1-1.4,0-3,1.3-3.7,3h.5c.5-.6,1.2-1.4,1.9-1.5l-2.7,6.9c-.2.6.2,1,.6,1,1.3,0,2.9-1.3,3.5-3h-.5c-.5.6-1.2,1.4-1.9,1.5l2.8-6.9ZM67.9,160.7c.6,0,1.1-.5,1.1-1.1s-.5-1.1-1.1-1.1-1.1.5-1.1,1.1.5,1.1,1.1,1.1M58.7,171.1l4.8-12.7-.2-.2-3,.3v.4l.6.5c.5.4.4.8-.1,2.1l-3.8,10c-.3.5,0,1.2.7,1.2,1.4,0,2.9-1.3,3.5-3h-.5c-.5.6-1.4,1.4-2.1,1.5M49.5,169.9c0-2.1,2.4-5,3.7-5s.6,0,.8.1l-1.4,3.7c-.8,1-2,2.2-2.6,2.2s-.5-.3-.5-.9M56.8,162.8h-.7c0,0-.8.7-.8.7h-.2c-4,0-7.4,4.4-7.4,7.7s.6,1.4,1.4,1.4,2-1.5,3.2-3v.6c-.2,1.6.3,2.5,1.1,2.5s1.9-1.5,2.5-3h-.5c-.5.7-.9,1.1-1.3,1.1s-.6-.7,0-2.1l2.6-5.9ZM39.1,174.3c0-.9.9-1.5,2.2-2,.4.2,1,.4,1.9.7,1.3.4,1.8.6,1.8,1,0,.9-1.4,1.5-3.4,1.5s-2.4-.3-2.4-1.2M42.7,168.7c-.6,0-.8-.5-.8-1,0-1.5.8-3.8,2.1-3.8s.8.5.8,1c0,1.5-.8,3.8-2.1,3.8M46.5,173.5c0-1.1-1-1.5-2.6-2-1.4-.4-2-.5-2-1s.3-.8.9-1.1c2.3-.1,3.8-2.2,3.8-3.9s0-.7-.2-1h1.9l.3-1h-3.1c-.4-.2-.8-.3-1.2-.3-2.4,0-4,2.1-4,3.8s.8,2.1,1.8,2.3c-1.1.5-1.8,1.1-1.8,1.8s.1.7.5.9c-2.6.8-3.6,1.6-3.6,2.9s1.6,1.7,3.5,1.7c3.2,0,5.8-1.7,5.8-3.2M34.3,166c1.1,0,1.2.5,1,1.7h.7l1.5-4.2h-.7c-.6,1-1,1.7-2.3,1.7h-2.5l1.3-3.5c.4-1.2.7-1.4,2.2-1.4h1.1c1.6,0,1.8.4,1.8,2h.6l.5-2.8h-9.6l-.2.5c1.9.4,2,.6,1.2,3l-2.1,5.7c-.9,2.4-1.2,2.6-3.4,3l-.2.5h10.7l1.9-3h-.7c-1.2,1.1-2.7,2.2-4.9,2.2s-2.6-.1-1.6-2.7l1-2.8h2.6ZM35.7,158.8l3.4-2.3v-.4h-2l-1.9,2.7h.5Z"></path>
    <path class="cls-2" d="M78.2,142.8c.6,0,1.2.5.9,1.7l-3,.7c.5-1.4,1.4-2.4,2.1-2.4M79.8,147.6h-.6c-.7.9-1.5,1.6-2.3,1.6s-1.2-.5-1.2-1.6,0-.9.1-1.3l4.8-1.6c.9-2.2-.2-3.2-1.5-3.2-2.3,0-4.9,3.8-4.9,7.1s.7,2.3,1.8,2.3,2.7-1.3,3.8-3.4M78.8,140.6l3.4-3.2v-.4h-1.8l-2.1,3.5h.5ZM68.9,142.8h1.3l-2.5,6.9c-.2.6,0,1.2.7,1.2,1.4,0,3.8-1.4,4.6-3.4h-.5c-.6.7-1.9,1.6-2.9,1.8l2.3-6.5h2.4l.3-1h-2.3l.9-2.5h-.9l-1.6,2.5-1.6.3v.7ZM67.6,143.6c.3-1.1.2-2.1-.7-2.1s-1.3.8-2.3,3v-1.3c0-.9-.3-1.7-1.1-1.7s-1.9,1.5-2.5,3h.5c.5-.7.9-1.1,1.3-1.1s.6.6,0,2.1l-1.9,4.2c-.3.8,0,1.3.8,1.3s.7-.1.9-.6l1.8-4.9c.5-.6,1-1.2,1.6-1.8h1.8ZM57,142.8c.6,0,1.2.5.9,1.7l-3,.7c.5-1.4,1.4-2.4,2.1-2.4M58.6,147.6h-.6c-.7.9-1.5,1.6-2.3,1.6s-1.2-.5-1.2-1.6,0-.9.1-1.3l4.8-1.6c.9-2.2-.2-3.2-1.5-3.2-2.3,0-4.9,3.8-4.9,7.1s.7,2.3,1.8,2.3,2.7-1.3,3.8-3.4M46.8,149.5c-.5,0-1.1-.4-1.1-.8s.2-.7.5-1.3l.8-2.1c.8-1,2.1-2,2.8-2s.8.3.8.9c0,1.9-1.8,5.3-3.7,5.3M52.3,143.4c0-1.4-.5-1.9-1.5-1.9s-2.4,1.3-3.5,2.8l2.9-7.6-.2-.2-3,.3v.4l.6.5c.5.4.4.9-.1,2.1l-3.1,8.1c-.2.6-.5,1.3-.5,1.5,0,.8,1.1,1.6,2.2,1.6,2.4,0,6.3-4.3,6.3-7.5M42.9,142.5c.2-.6-.2-1-.6-1-1.4,0-3,1.3-3.7,3h.5c.5-.6,1.2-1.4,1.9-1.5l-2.7,6.9c-.2.6.2,1,.6,1,1.3,0,2.9-1.3,3.5-3h-.5c-.5.6-1.2,1.4-1.9,1.5l2.8-6.9ZM43.4,139c.6,0,1.1-.5,1.1-1.1s-.5-1.1-1.1-1.1-1.1.5-1.1,1.1.5,1.1,1.1,1.1M36.4,137.9h-6.3l-.2.5c1.9.4,2,.6,1.2,3l-2,5.7c-.9,2.4-1.2,2.6-3.4,3l-.2.5h9.6l2.1-3.7h-.7c-1.2,1.3-2.6,2.9-4.7,2.9s-1.8-.3-.9-2.7l2-5.7c.9-2.4,1.2-2.6,3.4-3l.2-.5Z"></path>
  </g>
  <g>
    <path class="cls-1" d="M61.1,43.5c.3-.3.7-.7,1-1.1h0c.6-.7,1.3-1.4,2-2,.2-.2.4-.4.6-.5,0,0,0-.2.1-.2-.3.1-.5.4-.8.5,0,0-.1,0,0-.1.2-.2.4-.3.6-.5,0,0,0,0,0,0,0,0,0,0,0-.1-.8-.1-1.4.4-1.9.9-.1,0-.2,0-.3,0-.9.3-1.5,1.1-2.4,1.4h0c-.4,0-.7.2-1.1.3-.5.1-1,0-1.5,0-.7,0-1.4.2-2.2.4,0,0,0,0,0,0-.4.1-.8.2-1.1.4,0,0,0,0,0,0,0,0,0,0,0,.1-.1.1-.2.3-.4.4-.4.2-.7.5-1,.8,0,0,0,0,0,0-.3.3-.6.6-1,.9,0,0-.1,0-.2,0,0,0,0,0,0,0,0,0,0,0,0,0,0,0,.1-.2.2-.3,0,0,.1-.2.2-.3,0-.1.2-.2.3-.4,0,0,0,0,0,0,0,0,0,0,0,0,.3-.3.6-.5,1-.7,0,0,0,0,0,0,0,0,0,0,0,0,0,0,0-.1.1-.2,0,0,0,0,0,0,0,0,0,0,0,0,0,0-.2.1-.3.2-.1.1-.3.4-.5.4,0,0,0,0,0,0,0,0,0,0,0,0,0,0,0,0,0,0,0,0,0,0,0,0,0,0,0,0,0,0,0,0,0,0,0,0,0,0,0,0,0,0,0,0,0,0,0,0,0,0,0,0,0,0,0,0,0,0,0,0,0,0,0,0,0-.1,0,0,0,0,0,0,0,0,0,0,0-.1,0,0,0,0,0-.1.1-.1.2-.3.4-.4h0c.2-.1.5-.3.7-.4,0,0,0,0,0,0-.3.1-.6.3-.9.5,0,0,0,0-.1,0,0,0,0,0-.1,0,0,0,0,0,0,0,0-.1.2-.2.4-.3,0,0,.1,0,.1,0,1.9-1.5,4.5-1.1,6.7-1.9.2-.1.4-.2.5-.4.3-.1.5-.4.9-.6.5-.4.8-.8,1-1.4,0,0,0-.1,0-.1-.8.8-1.7,1.5-2.6,2-1.2.7-2.6.5-3.9.7,0-.1.2-.1.3-.1,0-.2.1-.2.2-.4h.2c0,0,0-.1.1-.1.1,0,.3,0,.2,0-.2-.2-.5.2-.8,0,.1-.1,0-.3.2-.4h.2c0-.1.1-.2.1-.2.9-.5,1.7-1,2.6-1.4-.2,0-.3.2-.5,0,.1,0,0-.2.1-.2.7-.2,1.2-.5,1.8-.8-.2,0-.4.2-.7,0,.1,0,.2-.2.4-.2v-.2c0,0,0,0,.1,0,0,0-.1,0-.1,0,0-.1.2,0,.4-.2,0,0-.2,0-.2,0,.2-.2.5-.3.8-.4,0-.1-.2,0-.2-.1s0,0,.1,0h-.1c-.1,0,0-.2,0-.2.4-.4.4-1,.5-1.4,0,0-.1,0-.1,0-.6.7-1.5.9-2.4,1.1h-.3c-.3.1-.7.1-1,0-.2-.1-.4-.3-.6-.5-.5-.3-1-.5-1.5-.7-1.5-.5-3-.7-4.6-.7.7-.4,1.4-.4,2.1-.6,1-.3,2-.7,3-.6-.2,0-.4,0-.6,0-.8,0-1.7.2-2.6.4-.6.1-1.1.4-1.7.5-.4.1-.5.5-1,.4v-.2c.6-.7,1.3-1.4,2.3-1.5,1.1-.2,2.1,0,3.1.1.8,0,1.5.2,2.3.4.3,0,.4.5.6.5.4.1.7,0,1.1.2,0-.1,0-.2,0-.4.2-.2.5,0,.8,0,.5-.3-.4-.8-.7-1.2,0,0,0-.1,0-.1.5.4.8.9,1.4,1.2.3.1,1,.3.9,0-.3-.7-.9-1.2-1.4-1.8v-.2c-.1,0-.1,0-.2-.1v-.2c-.2-.1-.2-.4-.3-.5-.2-.3,0-.7-.2-1.1-.1-.4-.2-.7-.2-1-.2-1-.4-1.9-.5-2.9-.1-1.1.7-2,1.2-3,.4-.7.9-1.4,1.7-1.9.2-.7.7-1.3,1.1-1.9.5-.6,1.3-.9,1.8-1.2.8-.4,1.6-.6,1.6-.6H25.4v31.4h28.9c1.1-.8,2.3-1.2,3.8-2,.7-.4,2.5-1.2,3-1.7ZM52,39.3c-.1,0-.4,0-.3,0,0-.3.5-.3.7-.4.1,0,.3-.2.4-.1.1.2.3.1.4.2-.4.4-.8.2-1.2.4ZM42.9,38s0,0,0-.1c.8-1,1.4-2,1.9-3,.8-.4,1.4-1,2-1.7,1-1.1,2.1-2,3.3-2.6.5-.2,1.1-.1,1.5,0-.2.2-.5.2-.7.4,0,0-.1,0-.2,0,0,0,0-.1,0-.2-.6.7-1.4,1-1.9,1.7-.4.6-.6,1.4-1.4,1.5-.2,0,0-.2,0-.1-1.8,1.1-3.1,2.5-4.6,4.1ZM47.8,34c0,.1-.1.1-.2.2,0,.1-.1.2-.2.2,0,0-.1,0-.1,0,0-.2.2-.5.5-.5,0,0,0,0,0,.1ZM50.6,42.9c0,0,0,.1-.1.2,0,0,.1,0,0,0-.1.1-.3.3-.5.3,0,0,0,0,0,0,0,0-.1.1-.2.2,0,0-.4,0-.3,0,.2-.1.3-.3.4-.4,0,0,.2-.2.2-.2,0,0,0,0,.1-.1,0,0,.4,0,.3,0ZM49.5,42.5s0,0,0,0c-.2.2-.4.3-.7.5-.3.1-.5.3-.8.4,0,0,0,0,0,0,0,0,0,0-.1,0-.2.1-.4.3-.6.5,0,0,0,0,0,0,0,0,0,0,0,0,0,0,0,0,0,0,0,0,0,0,0,0,0,0,0,0,0,0,0,0,0,0,0,0,0,0,0,0-.1.1,0,0,0,0,0,0,0,0-.1,0-.1,0,0,0,0,0,0,0,0,0,0,0-.1,0,0,0,0,0,0,0,0,0,0,0,0,0,0,0,0,0,0,0,0,0-.1.1-.2.2-.1.1-.2.2-.3.4,0,0,0,0,0,0,0,0,0,0,0,0,0,0,0,0,0,0,0,0,0,0,0,0,0,0,0,0,0,0,0,0,0,0,0,0,0,0,0,0,0,0,0,0,0,0,0,0,0,0,0,0,0,0,0,0,0,0,0,0,0,0,0,0,0,0,0,0,0,0,0,0,0,0,0,0,0,0,0,0,.1-.1.2-.2,0,0,0,0,0,0,0,0,0,0,0,0,0,0,0,0,0-.1,0,0,0,0,0,0,0,0,.1-.2.2-.3,0,0,0,0,0,0,0,0,0,0,0,0,0,0,0,0,0-.1,0,0,0,0,0-.1,0,0,0,0,0,0,0,0,0,0,0,0,0,0,0,0,0,0,0,0,0,0,0-.1,0,0,0,0,0,0,0,0,0,0,0,0,0,0,0,0,0,0h0s0,0,0,0c0,0,0,0,0,0,0,0,0,0,0,0,0-.1.1-.2.2-.3,0,0,0,0,0,0,0,0-.1.1-.2.2,0,0-.2,0-.1,0,0,0,0,0,.1-.1,0,0,0,0,0,0,0,0,.2-.2.3-.3,0,0,.1,0,.2-.1,0,0,0,0,0,0,0,0,0-.1.1-.1,0,0,0,0,0,0,.6-.5,1.5-.5,2.3-.9.3-.1.7,0,1,0,.2,0,.4,0,.5.1-.5.3-1,.6-1.5.9ZM50.8,38.3c0,0,.2,0,.2-.1h-.5c0,0,0,0,0-.1-.3,0-.7.2-1,.2-.4.1-.8.4-1.2.5-.7.2-1.2.8-1.9,1,0,0,0,0,0-.1,0-.2.3-.2.4-.4,0,0,0-.1,0-.1.5-.7,1.1-1,1.7-1.5v-.2c.2-.2.5-.4.6-.7,0-.2.3-.4.6-.5,0,0-.2,0-.2-.2-.2,0-.5.1-.7,0,.1-.1.2-.2.4-.2,0,0,0,0-.1,0,0-.1.1-.3.3-.3.2,0,.5,0,.7-.2-.4,0-.9.1-1.3-.1.3-.8.8-1.4,1.5-1.8,0,0,.2,0,.2,0,0,.3-.2.5-.5.6.5.1,1,.1,1.4.4,0,.1-.2,0-.2,0,.3.2.7,0,1,.3-.2.2-.4,0-.5,0,1.8.5,3.8,1,5.3,2.1-1.3.7-2.7,1-4.1,1.2-.2,0-.3,0-.5,0,0,0,0,.2,0,.2-.2,0-.4,0-.6.1-.2.1-.6.2-.8,0Z"></path>
    <path class="cls-4" d="M111.9,15.8h-33.8s0,0,.3.1c.3.1.6.3.9.5.4.2.9.5,1.1,1,.1.2.3.5.2.8-.1.3-.2.8-.5.9-.4.2-.8.2-1.2.1-.2,0-.5,0-.7-.1.9.4,1.7.8,2.3,1.6,0,.1.3.2.5.2s0,.1,0,.2c-.1.1-.2.2-.2.4h.2c.3-.1.2-.7.7-.5.3.2.4.6.2.9-.2.2-.5.4-.7.6,0,.1,0,.3,0,.4.2.2.2.5.3.7.2.4.2.9.4,1.3.2.9.5,1.8.4,2.7,0,.5-.2.9,0,1.4.1.5.4.8.7,1.2.2.4.5.6.7,1,.4.6,1,1.2.7,1.9-.2.4-.8.4-1.2.6-.4.3,0,.8.1,1.1.3.5-.4.9-.8,1.1.1.2.4.1.4.2,0,.3.4.5.2.8-.2.4-1,.5-.6,1.1.2.4,0,.9,0,1.3-.2.5-.7.8-1.1.9-.4.1-.8.1-1.1,0-.1,0-.2-.1-.4-.1-1-.1-2-.4-3-.4-.3,0-.6.1-.8.2-.3.2-.5.4-.7.6,0,0,0,0,0,0,0,0,0,0-.1.1,0,0,0,0,0,0,0,0,0,0,0,0-.2.2-.3.4-.5.7,0,0,0,0,0,0,0,0,0,0,0,0-.2.4-.3.7-.4,1.1-.4,1.4-.2,2.5,0,2.8,0,0,2,.7,3.3,1.2.6.3,1,.5,1.4.7h33.2V15.8Z"></path>
    <path class="cls-3" d="M80.1,27.3c.2,0,.6,0,.6.2-.1.5-.8.6-1.2,1.1h-.2c-.2.1-.1.4-.3.4-.2,0-.4,0-.5,0,.2.2.5.4.9.4,0,0,.2.1.2.2,0,0,0,0,.1,0,0,0,.1,0,.1,0v.2c-.2.2-.5.1-.7.2.5.1,1,.1,1.4,0,.4-.1,0-.7.2-1-.1,0,0-.2-.1-.2.1-.1.2-.3.4-.4.1,0,.3,0,.4-.2,0-.1-.2-.2-.2-.3.4-.2.7-.6.5-1,0-.2-.5-.2-.8-.3-.3-.1-.7,0-1,0-.3,0-.6.2-.9.2-.4.1-.8.4-1.1.6.4-.2.8-.2,1.3-.4.4,0,.7,0,1,0Z"></path>
  </g>
</svg>
