<?xml version="1.0" encoding="UTF-8"?>
<svg xmlns="http://www.w3.org/2000/svg" width="316" height="248" viewBox="0 0 316 248" fill="none">
  <path fill-rule="evenodd" clip-rule="evenodd" d="M9.75595 11.6621C4.48108 11.6621 0.210938 15.9323 0.210938 21.2071V160.363C0.210938 165.638 4.48108 169.908 9.75595 169.908C37.8886 169.908 120.528 169.908 148.912 169.908C154.187 169.908 158.457 165.638 158.457 160.363V21.2071C158.457 15.9323 154.187 11.6621 148.912 11.6621C120.528 11.6621 37.8886 11.6621 9.75595 11.6621Z" fill="#69DFCA"></path>
  <mask id="mask0_1371_4583" style="mask-type:luminance" maskUnits="userSpaceOnUse" x="0" y="11" width="159" height="159">
    <path d="M9.77939 11.6562C4.50452 11.6562 0.234375 15.9264 0.234375 21.2013V160.357C0.234375 165.632 4.50452 169.902 9.77939 169.902C37.912 169.902 120.552 169.902 148.936 169.902C154.21 169.902 158.481 165.632 158.481 160.357V21.2013C158.481 15.9264 154.21 11.6562 148.936 11.6562C120.552 11.6563 37.912 11.6562 9.77939 11.6562Z" fill="white"></path>
  </mask>
  <g mask="url(#mask0_1371_4583)">
    <path fill-rule="evenodd" clip-rule="evenodd" d="M109.486 51.0762C109.486 51.0762 114.008 60.1188 115.012 74.6875C115.515 81.7207 116.268 91.7681 118.78 97.2941C127.823 116.384 124.557 127.687 124.557 127.687H77.5859L77.8371 59.1141L109.486 51.0762Z" fill="#DDE7FF"></path>
    <path fill-rule="evenodd" clip-rule="evenodd" d="M49.9748 49.5723C49.9748 49.5723 44.9511 57.1078 43.9464 71.4253C43.444 78.2073 41.9369 86.4964 37.6668 94.0319C27.117 112.871 32.1407 127.691 32.1407 127.691H77.1027L78.861 57.359L49.9748 49.5723Z" fill="#DDE7FF"></path>
    <path fill-rule="evenodd" clip-rule="evenodd" d="M78.099 236.463C78.099 236.463 -47.4932 191.752 15.8052 154.326C45.445 136.994 54.7388 131.97 57.753 121.672C60.7672 111.373 59.5113 87.7617 59.5113 87.7617L78.3502 94.2925L97.4402 87.7617C97.4402 87.7617 95.9331 111.373 98.9473 121.672C101.961 131.97 111.255 136.994 140.895 154.326C209.72 195.017 78.6013 236.463 78.6013 236.463V236.714L78.099 236.463Z" fill="#88A7FF"></path>
    <mask id="mask1_1371_4583" style="mask-type:luminance" maskUnits="userSpaceOnUse" x="-3" y="87" width="164" height="150">
      <path d="M78.099 236.449C78.099 236.449 -47.4932 191.738 15.8052 154.312C45.445 136.98 54.7388 131.956 57.753 121.658C60.7672 111.359 59.5113 87.748 59.5113 87.748L78.3502 94.2788L97.4402 87.748C97.4402 87.748 95.9331 111.359 98.9473 121.658C101.961 131.956 111.255 136.98 140.895 154.312C209.72 195.004 78.6013 236.449 78.6013 236.449V236.7L78.099 236.449Z" fill="white"></path>
    </mask>
    <g mask="url(#mask1_1371_4583)">
      <path fill-rule="evenodd" clip-rule="evenodd" d="M78.0927 221.646L43.9316 218.129L9.26815 196.025L-10.3242 178.944C-10.3242 178.944 5.75158 158.598 14.7942 149.556C28.6094 135.741 52.2207 128.205 52.2207 128.205C57.2443 137.75 67.2917 143.779 78.3439 143.779C89.1448 143.779 99.1921 137.75 104.467 128.205C104.467 128.205 128.078 135.992 141.893 149.556C150.936 158.598 167.012 178.944 167.012 178.944L147.168 196.276L112.505 218.38L78.0927 221.646Z" fill="#2F4A8F"></path>
    </g>
    <path fill-rule="evenodd" clip-rule="evenodd" d="M46.4448 74.6875C44.6865 65.6448 51.7197 35.7539 78.8476 35.7539C103.715 35.7539 111.502 64.1377 109.994 72.4268C105.473 98.55 94.1699 121.659 78.0941 121.659C62.2694 121.659 51.2173 99.8059 46.4448 74.6875Z" fill="#9CB8FF"></path>
    <path fill-rule="evenodd" clip-rule="evenodd" d="M110.742 54.0995C103.458 31.9953 77.5859 35.0095 77.5859 35.0095L90.8987 77.962H106.221L111.496 83.4881C109.738 88.763 115.264 67.9146 110.742 54.0995Z" fill="#DDE7FF"></path>
    <path fill-rule="evenodd" clip-rule="evenodd" d="M49.2027 51.0844C60.2548 31.7432 85.3732 35.2598 85.3732 35.2598C85.3732 35.2598 94.6671 49.8285 82.1078 63.6437C78.5913 67.6626 69.2974 75.4493 65.2785 81.2266C59.7524 89.2645 66.2832 98.3071 63.269 108.103C59.7524 119.155 42.6719 118.151 42.6719 118.151C42.6719 118.151 42.9231 62.1365 49.2027 51.0844Z" fill="#DDE7FF"></path>
    <path fill-rule="evenodd" clip-rule="evenodd" d="M86.6481 101.576C85.3922 103.836 82.1268 105.846 77.8567 105.846C73.5865 105.846 70.5723 103.836 69.3164 101.576C69.3164 101.576 73.5865 98.8125 77.8567 98.8125C82.378 98.8125 86.6481 101.576 86.6481 101.576Z" fill="#2D62E8" fill-opacity="0.69"></path>
    <path fill-rule="evenodd" clip-rule="evenodd" d="M107.233 75.4588C103.716 74.9564 100.199 78.7242 99.4458 84.7526C98.6923 90.7811 100.702 96.5583 104.47 97.0607C107.986 97.563 108.991 92.2881 111 86.7621C113.261 80.4825 110.749 75.9612 107.233 75.4588Z" fill="#9CB8FF"></path>
  </g>
  <path fill-rule="evenodd" clip-rule="evenodd" d="M288.703 152.711L51.3539 247.651L177.94 152.711H288.703Z" fill="#0F2356"></path>
  <path fill-rule="evenodd" clip-rule="evenodd" d="M177.934 57.7734L51.3475 247.653L177.934 152.713V57.7734Z" fill="#3B63E0"></path>
  <path d="M177.94 57.7734H288.703V152.713H177.94V57.7734Z" fill="#2F4A8F"></path>
  <path d="M233.322 136.885C215.844 136.885 201.675 122.716 201.675 105.238C201.675 87.7605 215.844 73.5918 233.322 73.5918C250.8 73.5918 264.969 87.7605 264.969 105.238C264.969 122.716 250.8 136.885 233.322 136.885Z" fill="#2D62E8"></path>
  <mask id="mask2_1371_4583" style="mask-type:luminance" maskUnits="userSpaceOnUse" x="201" y="73" width="64" height="64">
    <path d="M233.322 136.897C215.844 136.897 201.675 122.728 201.675 105.25C201.675 87.7722 215.844 73.6035 233.322 73.6035C250.8 73.6035 264.969 87.7722 264.969 105.25C264.969 122.728 250.8 136.897 233.322 136.897Z" fill="white"></path>
  </mask>
  <g mask="url(#mask2_1371_4583)">
    <path fill-rule="evenodd" clip-rule="evenodd" d="M264.969 73.6035H257.057L233.322 105.25V146.504H264.969V73.6035Z" fill="#C6BDFF"></path>
    <path d="M233.322 105.244H264.969V136.891H233.322V105.244Z" fill="#25A3FF"></path>
    <path fill-rule="evenodd" clip-rule="evenodd" d="M288.707 73.6035H233.325V105.25L288.707 73.6035Z" fill="#CEEBFF"></path>
  </g>
  <path d="M268.974 0.746094H309.608C312.754 0.746094 315.305 3.29645 315.305 6.44248V14.0377C315.305 17.1837 312.754 19.734 309.608 19.734H268.974C265.828 19.734 263.278 17.1837 263.278 14.0376V6.44247C263.278 3.29645 265.828 0.746094 268.974 0.746094Z" fill="#BDEBE0"></path>
  <path d="M264.095 0.810547H270.108C273.254 0.810547 275.805 3.36091 275.805 6.50693V14.1021C275.805 17.2481 273.254 19.7985 270.108 19.7985H264.095C260.949 19.7985 258.399 17.2481 258.399 14.1021V6.50693C258.399 3.3609 260.949 0.810547 264.095 0.810547Z" fill="#69DFCA"></path>
</svg>
